#!OML:ASF H:\GeneralSubjects\Female5\Project 1\Capture day 1\Session 1\Female5.ASF
:FULLY-SPECIFIED
:DEGREES
740
root -21.5348 15.6556 4.94758 -170.852 4.90688 -169.398
lowerback 10.3482 -1.58466 -1.03725
upperback -2.61378 -0.965916 8.43715
thorax -8.49625 0.111201 9.94023
lowerneck -58.0334 6.8447 6.16976
upperneck 41.6733 9.01548 -5.76408
head 31.4727 2.95273 -1.54244
rclavicle -2.73329e-014 -6.83819e-014
rhumerus 27.3512 43.8019 -48.9188
rradius 115.576
rwrist -70.1162
rhand -20.8539 -28.2479
rfingers 7.12502
rthumb 5.51538 -58.1561
lclavicle -2.73329e-014 -6.83819e-014
lhumerus -31.4363 20.3606 82.0391
lradius 33.8487
lwrist -8.78736
lhand -29.9805 34.7011
lfingers 7.12502
lthumb -3.29859 64.6554
rfemur 16.8762 51.8224 53.9942
rtibia -13.7436
rfoot -62.8467 -38.0158
rtoes 36.7772
lfemur 163.197 184.518 186.559
ltibia 6.50259
lfoot 128.269 -154.502
ltoes -53.016
741
root -21.4982 15.6553 4.96398 -170.781 4.70389 -169.41
lowerback 10.0457 -1.53707 -0.913699
upperback -2.78403 -0.901407 8.33035
thorax -8.52058 0.134036 9.7263
lowerneck -56.9845 6.69507 6.22178
upperneck 41.0933 8.79819 -5.98301
head 30.394 2.88445 -1.75448
rclavicle -2.69353e-014 7.15625e-014
rhumerus 26.7809 44.2032 -49.0939
rradius 116.254
rwrist -69.967
rhand -20.5957 -27.7797
rfingers 7.12502
rthumb 5.76473 -57.6813
lclavicle -2.69353e-014 7.15625e-014
lhumerus -32.2443 20.9624 81.262
lradius 32.9794
lwrist -9.42642
lhand -29.8918 34.7881
lfingers 7.12502
lthumb -3.21299 64.7436
rfemur 16.7927 51.6779 54.0523
rtibia -13.9497
rfoot -62.8074 -38.0702
rtoes 36.8379
lfemur 162.144 180.835 185.724
ltibia 8.62765
lfoot 131.383 -153.909
ltoes -54.8324
742
root -21.4674 15.6559 4.97787 -170.691 4.51355 -169.46
lowerback 9.73362 -1.48123 -0.805806
upperback -2.96501 -0.828293 8.21841
thorax -8.55142 0.162062 9.51563
lowerneck -55.942 6.54986 6.28775
upperneck 40.4552 8.58524 -6.22501
head 29.3349 2.81055 -1.97255
rclavicle -1.50082e-014 8.74653e-014
rhumerus 26.2806 44.6336 -49.1707
rradius 117.074
rwrist -69.7455
rhand -20.2317 -27.3896
rfingers 7.12502
rthumb 6.11614 -57.2813
lclavicle -1.50082e-014 8.74653e-014
lhumerus -33.1071 21.5684 80.4469
lradius 32.1595
lwrist -9.99418
lhand -29.7216 34.8312
lfingers 7.12502
lthumb -3.04863 64.7892
rfemur 16.666 51.553 54.0222
rtibia -14.1251
rfoot -62.7522 -38.1645
rtoes 36.8078
lfemur 161.143 177.558 184.7
ltibia 10.7152
lfoot 133.89 -153.321
ltoes -55.1777
743
root -21.4419 15.6575 4.98944 -170.581 4.34037 -169.546
lowerback 9.41549 -1.41624 -0.719711
upperback -3.15501 -0.74509 8.10542
thorax -8.58913 0.196729 9.3164
lowerneck -54.9211 6.41303 6.37684
upperneck 39.7732 8.37437 -6.48757
head 28.3147 2.73259 -2.19701
rclavicle -6.4605e-015 -1.19271e-014
rhumerus 25.8577 45.0946 -49.1469
rradius 118.031
rwrist -69.4265
rhand -19.7644 -27.0656
rfingers 7.12502
rthumb 6.56729 -56.9438
lclavicle -6.4605e-015 -1.19271e-014
lhumerus -34.0166 22.1258 79.6173
lradius 31.3916
lwrist -10.4645
lhand -29.4648 34.8425
lfingers 7.12502
lthumb -2.80057 64.8039
rfemur 16.4882 51.4535 53.9033
rtibia -14.2592
rfoot -62.6733 -38.2983
rtoes 36.7114
lfemur 160.284 175.021 183.622
ltibia 12.4916
lfoot 135.673 -152.746
ltoes -54.0287
744
root -21.4212 15.6602 4.99886 -170.46 4.18911 -169.66
lowerback 9.09593 -1.34039 -0.661533
upperback -3.3492 -0.64864 7.99877
thorax -8.63156 0.240484 9.14004
lowerneck -53.8974 6.2779 6.47919
upperneck 39.0356 8.18251 -6.79534
head 27.3181 2.65113 -2.43493
rclavicle -1.31198e-014 4.37326e-014
rhumerus 25.5247 45.5861 -49.0147
rradius 119.1
rwrist -68.9953
rhand -19.2347 -26.77
rfingers 7.12502
rthumb 7.07859 -56.6317
lclavicle -1.31198e-014 4.37326e-014
lhumerus -34.965 22.6036 78.7965
lradius 30.6829
lwrist -10.8507
lhand -29.1376 34.8445
lfingers 7.12502
lthumb -2.48463 64.8098
rfemur 16.2597 51.382 53.7083
rtibia -14.3361
rfoot -62.5729 -38.4317
rtoes 36.5822
lfemur 159.658 173.428 182.645
ltibia 13.7099
lfoot 136.668 -152.267
ltoes -51.4012
745
root -21.4039 15.6641 5.00649 -170.342 4.06331 -169.786
lowerback 8.7747 -1.25033 -0.627806
upperback -3.55568 -0.531371 7.90382
thorax -8.68889 0.298262 8.98972
lowerneck -52.7867 6.15745 6.65057
upperneck 38.2292 8.02315 -7.20965
head 26.3293 2.57376 -2.72528
rclavicle 9.19379e-015 -3.97569e-015
rhumerus 25.2277 46.1139 -48.82
rradius 120.234
rwrist -68.4369
rhand -18.6533 -26.4715
rfingers 7.12502
rthumb 7.63979 -56.3135
lclavicle 9.19379e-015 -3.97569e-015
lhumerus -35.9762 22.9655 77.9942
lradius 30.0399
lwrist -11.1904
lhand -28.7883 34.8515
lfingers 7.12502
lthumb -2.14728 64.8205
rfemur 16.0053 51.3346 53.4694
rtibia -14.373
rfoot -62.4562 -38.5507
rtoes 36.4408
lfemur 159.302 172.779 181.894
ltibia 14.2802
lfoot 136.837 -152.066
ltoes -47.9932
746
root -21.3891 15.6691 5.01251 -170.245 3.96456 -169.912
lowerback 8.4607 -1.16116 -0.590582
upperback -3.78829 -0.403449 7.8385
thorax -8.78045 0.36681 8.8718
lowerneck -51.4905 6.01778 6.81149
upperneck 37.3505 7.91773 -7.70597
head 25.3205 2.50163 -3.02709
rclavicle 1.68967e-015 -1.19271e-014
rhumerus 24.9489 46.723 -48.5644
rradius 121.385
rwrist -67.7616
rhand -18.0049 -26.1433
rfingers 7.12502
rthumb 8.26557 -55.9616
lclavicle 1.68967e-015 -1.19271e-014
lhumerus -37.1036 23.2197 77.227
lradius 29.4786
lwrist -11.4982
lhand -28.4721 34.865
lfingers 7.12502
lthumb -1.84184 64.8368
rfemur 15.7641 51.3025 53.2233
rtibia -14.39
rfoot -62.3434 -38.6516
rtoes 36.3189
lfemur 159.189 172.87 181.408
ltibia 14.2971
lfoot 136.317 -152.239
ltoes -45.0437
747
root -21.3764 15.6747 5.01693 -170.18 3.89305 -170.035
lowerback 8.15976 -1.07149 -0.539341
upperback -4.0449 -0.264223 7.78852
thorax -8.90763 0.444553 8.76378
lowerneck -50.0011 5.87573 7.01231
upperneck 36.4116 7.85839 -8.3081
head 24.3074 2.43949 -3.3626
rclavicle -1.799e-014 8.74653e-015
rhumerus 24.6479 47.3764 -48.3096
rradius 122.492
rwrist -67.0088
rhand -17.2975 -25.7783
rfingers 7.12502
rthumb 8.94827 -55.5685
lclavicle -1.799e-014 8.74653e-015
lhumerus -38.3144 23.3145 76.4893
lradius 28.9849
lwrist -11.7703
lhand -28.2224 34.8623
lfingers 7.12502
lthumb -1.60075 64.836
rfemur 15.563 51.28 53.011
rtibia -14.3664
rfoot -62.2595 -38.7008
rtoes 36.245
lfemur 159.241 173.363 181.15
ltibia 13.9862
lfoot 135.46 -152.675
ltoes -43.6725
748
root -21.3654 15.6804 5.01959 -170.151 3.84817 -170.151
lowerback 7.88105 -1.00358 -0.44276
upperback -4.33042 -0.134132 7.77238
thorax -9.07861 0.522129 8.67157
lowerneck -48.3059 5.66381 7.04795
upperneck 35.4526 7.82455 -8.8416
head 23.2817 2.38011 -3.60324
rclavicle 2.71838e-014 -5.96354e-014
rhumerus 24.3727 48.0958 -48.0013
rradius 123.512
rwrist -66.267
rhand -16.5651 -25.3687
rfingers 7.12502
rthumb 9.65499 -55.1275
lclavicle 2.71838e-014 -5.96354e-014
lhumerus -39.6207 23.3387 75.7794
lradius 28.5421
lwrist -12.051
lhand -27.9778 34.872
lfingers 7.12502
lthumb -1.36443 64.8474
rfemur 15.4183 51.2651 52.8631
rtibia -14.283
rfoot -62.2281 -38.6733
rtoes 36.2331
lfemur 159.376 173.916 181.036
ltibia 13.5789
lfoot 134.664 -153.195
ltoes -42.5978
749
root -21.3564 15.6853 5.02024 -170.153 3.82809 -170.264
lowerback 7.63035 -0.954487 -0.312398
upperback -4.62733 -0.015903 7.77527
thorax -9.27719 0.595848 8.58486
lowerneck -46.4125 5.34749 6.80268
upperneck 34.8246 7.78232 -9.20958
head 21.8627 2.29503 -3.67967
rclavicle -7.25564e-015 2.06736e-014
rhumerus 24.1432 48.8226 -47.6526
rradius 124.401
rwrist -65.5997
rhand -15.8502 -24.8911
rfingers 7.12502
rthumb 10.3447 -54.6167
lclavicle -7.25564e-015 2.06736e-014
lhumerus -40.9363 23.3092 75.0874
lradius 28.1236
lwrist -12.3791
lhand -27.7459 34.846
lfingers 7.12502
lthumb -1.14049 64.8227
rfemur 15.3364 51.2567 52.7803
rtibia -14.1444
rfoot -62.2572 -38.5526
rtoes 36.3084
lfemur 159.549 174.299 180.973
ltibia 13.206
lfoot 134.211 -153.644
ltoes -41.6389
